# xmcd
#
# Track frame offsets:
#	150
#	15542
#	30603
#	45462
#	60653
#	74980
#	90528
#	105130
#	119461
#	132921
#
# Disc length: 1969 seconds
#
# Revision: 0
# Processed by: cddbd v1.5.2PL0 Copyright (c) Steve Scherf et al.
# Submitted via: EasyCDDAExtractor 16.0.6.1
#
DISCID=8007af0a
DTITLE=Συλλογικός δίσκος - Ιστορία ρεμπέτικου και λαϊκού 05-2
DYEAR=2007
DGENRE=Ποικίλη
TTITLE0=Τσαουσάκης Πρόδρομος-Γεωργακοπούλου Ι. - Χωρίσαμ' ένα δειλινό [Βασ. Τσ
TTITLE0=ιτσάνης]
TTITLE1=Χατζηχρήστος Απ.-Βαμβακάρης Μ.-Σταμούλης Ι.  - Φέρε μας κάπελα κρασί [
TTITLE1=Απ. Χατζηχρήστος]
TTITLE2=Βαμβακάρης Μάρκος-Χασκίλ Σ.-Τσιτσάνης Β. - Ντερμπεντέρισσα (Τρέξε μάγκ
TTITLE2=α να ρωτ.)[Β. Τσιτσάνης]
TTITLE3=Χαρμαντάς Τόλης-Χαρμαντά Λίτσα (Ντούο Χάρμα) - Τρελλό κορίτσι [Μαν. Χι
TTITLE3=ώτης]
TTITLE4=Μοσχονάς Οδυσσέας-Περπινιάδης Στελλάκης - Περασμένα ξεχασμένα [Οδ. Μοσ
TTITLE4=χονάς-Δημ. Σέμσης]
TTITLE5=Χασκίλ Στέλλα - Μέσ' στην χασάπικη αγορά [Μ. Βαμβακάρης]
TTITLE6=Χαρμαντάς Τόλης-Χαρμαντά Λίτσα (Ντούο Χάρμα) - Η ξενητειά [Απ. Καλδάρα
TTITLE6=ς]
TTITLE7=Γκόγκος Δημήτρης-Γαλανάκη Λ. - Έλα να μπερμπαντέψεις [Δημ. Γκόγκος]
TTITLE8=Χαρμαντάς Τόλης-Χαρμαντά Λίτσα (Ντούο Χάρμα) - Μπαρμπαριά [Απ. Καλδάρα
TTITLE8=ς]
TTITLE9=Βαμβακάρης Μ.-Χατζηχρήστος Απ.-Σταμούλης Ι. - Το μινόρε της αυγής [Σπ.
TTITLE9=Περιστέρης-Μ. Μάτσας]
EXTD=
EXTT0=
EXTT1=
EXTT2=
EXTT3=
EXTT4=
EXTT5=
EXTT6=
EXTT7=
EXTT8=
EXTT9=
PLAYORDER=
